<svg width="15" height="19" viewBox="0 0 15 19" fill="none" xmlns="http://www.w3.org/2000/svg">
<path d="M7.47052 10.1621C7.23181 10.1621 7.00288 10.2569 6.83409 10.4257C6.6653 10.5945 6.57047 10.8234 6.57047 11.0621V13.7623C6.57047 14.001 6.6653 14.2299 6.83409 14.3987C7.00288 14.5675 7.23181 14.6623 7.47052 14.6623C7.70923 14.6623 7.93816 14.5675 8.10695 14.3987C8.27574 14.2299 8.37057 14.001 8.37057 13.7623V11.0621C8.37057 10.8234 8.27574 10.5945 8.10695 10.4257C7.93816 10.2569 7.70923 10.1621 7.47052 10.1621ZM11.9708 6.56189H4.77038V4.76179C4.76907 4.22733 4.92639 3.70451 5.22244 3.25953C5.51848 2.81455 5.93992 2.46743 6.43338 2.26214C6.92684 2.05686 7.47013 2.00263 7.99443 2.10633C8.51873 2.21004 9.00047 2.467 9.37862 2.84469C9.71699 3.19037 9.95902 3.61857 10.0807 4.08676C10.1102 4.20141 10.1621 4.30911 10.2332 4.40373C10.3044 4.49834 10.3935 4.57801 10.4955 4.63819C10.5974 4.69836 10.7103 4.73787 10.8275 4.75444C10.9447 4.77102 11.0641 4.76434 11.1787 4.73479C11.2934 4.70524 11.4011 4.6534 11.4957 4.58222C11.5903 4.51105 11.67 4.42194 11.7302 4.31997C11.7903 4.21801 11.8298 4.10519 11.8464 3.98796C11.863 3.87073 11.8563 3.75138 11.8268 3.63673C11.6217 2.85801 11.215 2.14709 10.6477 1.57562C10.0178 0.947719 9.21602 0.52053 8.34353 0.347997C7.47104 0.175464 6.567 0.265325 5.74554 0.606232C4.92409 0.947139 4.22207 1.52381 3.72813 2.26342C3.23419 3.00302 2.97047 3.87241 2.97028 4.76179V6.56189C2.25416 6.56189 1.56737 6.84636 1.061 7.35274C0.55462 7.85911 0.270142 8.54591 0.270142 9.26203V15.5624C0.270142 16.2785 0.55462 16.9653 1.061 17.4717C1.56737 17.978 2.25416 18.2625 2.97028 18.2625H11.9708C12.6869 18.2625 13.3737 17.978 13.88 17.4717C14.3864 16.9653 14.6709 16.2785 14.6709 15.5624V9.26203C14.6709 8.54591 14.3864 7.85911 13.88 7.35274C13.3737 6.84636 12.6869 6.56189 11.9708 6.56189ZM12.8708 15.5624C12.8708 15.8011 12.776 16.03 12.6072 16.1988C12.4384 16.3676 12.2095 16.4624 11.9708 16.4624H2.97028C2.73158 16.4624 2.50265 16.3676 2.33385 16.1988C2.16506 16.03 2.07024 15.8011 2.07024 15.5624V9.26203C2.07024 9.02332 2.16506 8.79439 2.33385 8.6256C2.50265 8.45681 2.73158 8.36198 2.97028 8.36198H11.9708C12.2095 8.36198 12.4384 8.45681 12.6072 8.6256C12.776 8.79439 12.8708 9.02332 12.8708 9.26203V15.5624Z" fill="#030E16"/>
</svg>
