<svg width="26" height="26" viewBox="0 0 26 26" fill="none" xmlns="http://www.w3.org/2000/svg">
<path d="M10.649 9.83364C10.6389 10.1413 10.6894 10.4479 10.7977 10.736C10.906 11.0241 11.07 11.288 11.2803 11.5127C11.4907 11.7374 11.7432 11.9185 12.0235 12.0456C12.3038 12.1728 12.6064 12.2434 12.914 12.2536C13.2216 12.2638 13.5282 12.2133 13.8163 12.1049C14.1044 11.9966 14.3684 11.8326 14.5931 11.6223C14.8178 11.412 14.9989 11.1595 15.126 10.8792C15.2531 10.5988 15.3238 10.2962 15.334 9.98863C15.3442 9.68101 15.2936 9.3744 15.1853 9.0863C15.077 8.79821 14.913 8.53427 14.7027 8.30955C14.4924 8.08484 14.2398 7.90375 13.9595 7.77663C13.6792 7.64951 13.3766 7.57884 13.069 7.56866C12.7614 7.55849 12.4548 7.609 12.1667 7.71732C11.8786 7.82564 11.6147 7.98964 11.3899 8.19996C11.1652 8.41028 10.9841 8.66281 10.857 8.94311C10.7299 9.22342 10.6592 9.52602 10.649 9.83364Z" stroke="black" stroke-linecap="round" stroke-linejoin="round"/>
<path d="M17.679 18.5049C17.295 17.5799 16.6447 16.7893 15.8103 16.233C14.976 15.6768 13.995 15.3799 12.9915 15.3799C11.988 15.3799 11.0071 15.6768 10.1727 16.233C9.33834 16.7893 8.68803 17.5799 8.30402 18.5049" stroke="black" stroke-linecap="round" stroke-linejoin="round"/>
</svg>
